PathFileType	4	(X/Y/Z)	E:\Qualisys_Data\Carbon_Farble_Plate\Data\Amateur_Runner\S14\T2\S14T2V26_c3d.trc
DataRate	CameraRate	NumFrames	NumMarkers	Units	OrigDataRate	OrigDataStartFrame	OrigNumFrames
200.000000	200.000000	5	39	mm	200.000000	111	296
Frame#	Time	LSHO			RSHO			LICST			RICST			LASIS			LHEEL			RASIS			LTROC			RTROC			SACR			LTH1			LSK4			LTH2			LTH3			RHM5			LSK2			LTH4			RTH1			LTOE			RTH2			RTH3			RTH4			LLEP			RLEP			LSK1			LSK3			RSK1			LHM5			RSK2			LFT1			RSK3			RSK4			LLME			RLME			RTOE			RHEEL			RFT1			RFT2			LFT2			
		X1	Y1	Z1	X2	Y2	Z2	X3	Y3	Z3	X4	Y4	Z4	X5	Y5	Z5	X6	Y6	Z6	X7	Y7	Z7	X8	Y8	Z8	X9	Y9	Z9	X10	Y10	Z10	X11	Y11	Z11	X12	Y12	Z12	X13	Y13	Z13	X14	Y14	Z14	X15	Y15	Z15	X16	Y16	Z16	X17	Y17	Z17	X18	Y18	Z18	X19	Y19	Z19	X20	Y20	Z20	X21	Y21	Z21	X22	Y22	Z22	X23	Y23	Z23	X24	Y24	Z24	X25	Y25	Z25	X26	Y26	Z26	X27	Y27	Z27	X28	Y28	Z28	X29	Y29	Z29	X30	Y30	Z30	X31	Y31	Z31	X32	Y32	Z32	X33	Y33	Z33	X34	Y34	Z34	X35	Y35	Z35	X36	Y36	Z36	X37	Y37	Z37	X38	Y38	Z38	X39	Y39	Z39	

112	0.555	-461.2311401367188	1396.150756835938	-565.7870483398438	-438.6210021972656	1406.93994140625	-264.0570373535156	-516.8582763671875	957.1728515625	-525.4542846679688	-474.8873291015625	956.3530883789062	-248.9805908203125	-474.3730773925781	906.3197021484376	-505.8583984375	-861.1392211914062	129.1958465576172	-358.6947326660156	-452.3974304199219	913.0263671875	-270.7878723144531	-617.8689575195312	848.2977294921875	-532.8523559570312	-584.4066772460938	834.8294677734375	-208.2974395751953	-634.0025634765625	967.8024291992188	-382.31201171875	-548.6814575195312	610.49072265625	-529.1932983398438	-727.7411499023438	300.7191467285156	-458.647705078125	-622.3112182617188	613.37841796875	-505.5982971191406	-539.7566528320312	514.5045776367188	-500.6375732421875	-732.3626708984375	232.6856231689453	-216.2074279785156	-673.8118286132812	379.2293395996094	-485.2024841308594	-616.8984985351562	518.1318359375	-481.5945434570312	-373.3953552246094	670.7177124023438	-211.9160919189453	-624.2396240234375	63.34819030761719	-422.71044921875	-445.6430969238281	642.320556640625	-196.6979217529297	-335.4056701660156	579.4066772460938	-232.7592620849609	-411.5342102050781	547.2411499023438	-211.8723754882812	-589.4342041015625	440.629638671875	-489.2166137695312	-371.5241088867188	495.0031127929688	-215.5408020019531	-603.6405639648438	334.4231872558594	-479.0800170898438	-662.109619140625	253.5960845947266	-455.5730590820312	-452.1663513183594	421.2286987304688	-221.6881256103516	-700.7935791015625	62.21258926391602	-478.4736633300781	-488.1441650390625	499.1044616699219	-224.0741119384766	-856.7030029296875	96.37117004394533	-340.5692443847656	-548.2050170898438	384.365966796875	-237.7816619873047	-574.6099243164062	458.9830017089844	-237.8878021240234	-798.2590942382812	141.2231292724609	-429.1162414550781	-720.2650146484375	366.4664001464844	-258.9233703613281	-691.9024658203125	157.1280975341797	-270.7923583984375	-764.9260864257812	403.8895263671875	-319.4288330078125	-788.3881225585938	376.7156677246094	-344.1875	-789.22509765625	396.3872375488281	-291.4834899902344	-868.9037475585938	102.1364212036133	-394.2319641113281
113	0.56	-437.5156555175781	1399.984252929688	-565.3104248046875	-420.2386474609375	1410.583251953125	-263.8150024414062	-495.164306640625	959.75390625	-526.1654052734375	-453.5538024902344	960.0570068359376	-249.3915252685547	-452.658203125	908.6544799804688	-506.4049987792969	-857.964111328125	135.4442596435547	-360.0780029296875	-430.7670288085938	916.7628784179688	-271.3296508789062	-596.8719482421875	851.0045776367188	-533.2245483398438	-563.048583984375	838.72509765625	-208.8009796142578	-612.9390869140625	970.487548828125	-383.0287780761719	-535.4732055664062	612.7938232421875	-529.0562744140625	-722.51611328125	306.3238220214844	-459.127197265625	-608.7415771484375	618.4071655273438	-505.6579895019531	-529.9066772460938	516.9058837890625	-500.4597473144531	-691.4697875976562	223.2787628173828	-216.0169982910156	-667.6072998046875	384.0636291503906	-485.0540161132812	-606.9298706054688	522.7886962890625	-481.2049560546875	-349.8204040527344	677.749755859375	-212.6537628173828	-623.9816284179688	62.98561096191406	-422.9147338867188	-421.6348571777344	647.2770385742188	-198.0342559814453	-309.5263061523438	587.3118286132812	-233.7696380615234	-385.0179138183594	553.4859619140625	-213.3227996826172	-582.305419921875	443.9407348632812	-488.8812866210938	-343.2604675292969	502.3002319335938	-216.6187133789062	-598.2535400390625	338.2867431640625	-479.4952697753906	-657.8326416015625	258.2455139160156	-456.555908203125	-421.4415588378906	424.9471435546875	-223.4966278076172	-699.7158813476562	62.61365509033203	-478.9029541015625	-460.7781066894531	501.2701721191406	-226.0252990722656	-854.0286865234375	102.9447631835938	-341.7721862792969	-515.7005615234375	383.5569763183594	-239.0614929199219	-545.1826171875	457.1052551269531	-238.9781646728516	-794.4218139648438	146.5006561279297	-430.1811218261719	-685.5909423828125	357.1867980957031	-260.6703186035156	-647.1812744140625	150.4386749267578	-269.4048156738281	-734.143310546875	392.3949890136719	-319.7481689453125	-755.96240234375	363.6177062988281	-344.2662963867188	-757.8073120117188	383.2461547851562	-291.088623046875	-865.9899291992188	107.8340835571289	-395.2891235351562
114	0.565	-414.1521606445312	1403.75390625	-564.6139526367188	-402.0181274414062	1414.358154296875	-263.6260375976562	-473.1554260253906	962.3849487304688	-526.8093872070312	-433.2724914550781	963.438232421875	-250.2398223876953	-431.0303955078125	911.1649169921876	-506.7439880371094	-853.5818481445312	143.2522125244141	-362.3449096679688	-409.6588439941406	921.3026733398438	-272.0053100585938	-575.2293701171875	854.4835815429688	-533.4208374023438	-541.4855346679688	842.954345703125	-209.0897979736328	-591.3922729492188	973.775634765625	-384.351318359375	-521.3966674804688	615.5559692382812	-528.7295532226562	-716.4639282226562	312.2875671386719	-459.8975830078125	-594.7526245117188	623.4104614257812	-505.4877319335938	-518.8339233398438	519.801025390625	-500.4867553710938	-649.625244140625	213.9282989501953	-216.2168121337891	-660.7944946289062	389.4312744140625	-485.6677856445312	-595.9148559570312	528.1228637695312	-481.6551208496094	-326.5653991699219	684.3673706054688	-213.3735504150391	-623.1447143554688	62.81955718994141	-423.3069152832031	-397.5220336914062	652.78759765625	-199.4794311523438	-284.3619079589844	595.338134765625	-235.3067932128906	-358.7386474609375	559.8011474609375	-215.2315216064453	-573.90478515625	448.6021118164062	-489.1937255859375	-315.2763977050781	508.9144897460938	-218.1757354736328	-591.6492919921875	342.7674255371094	-480.2850952148438	-652.7078247070312	263.37060546875	-458.01953125	-391.2088928222656	428.4079895019531	-225.0518798828125	-698.7271728515625	62.96430206298828	-479.2548217773438	-434.0138854980469	502.6139221191406	-227.8674774169922	-850.9498291015625	111.0624160766602	-342.6971435546875	-483.5984802246094	382.7991027832031	-239.7293548583984	-516.5242309570312	454.6990661621094	-240.2399139404297	-790.3724975585938	152.1363677978516	-431.7962951660156	-652.677734375	348.4033203125	-258.4644165039062	-601.5117797851562	143.6511993408203	-269.3983154296875	-702.4900512695312	379.6636962890625	-319.4268188476562	-724.8637084960938	350.7868041992188	-344.0415344238281	-725.977294921875	369.9569091796875	-290.971923828125	-862.2528686523438	115.8883438110352	-396.0626831054688
115	0.57	-390.4093017578125	1407.953369140625	-564.2843017578125	-383.6750183105469	1418.178588867188	-263.3583984375	-450.9775695800781	964.95166015625	-527.2157592773438	-411.4621276855469	967.160888671875	-250.9683380126953	-408.9804992675781	913.4848022460938	-506.683837890625	-848.637939453125	151.1611022949219	-364.3943786621094	-388.1505432128906	925.5235595703124	-272.6048583984375	-553.9242553710938	858.01904296875	-534.6495361328125	-519.7002563476562	847.3948974609375	-208.9697418212891	-569.8414916992188	976.4848022460938	-385.5579833984375	-506.6944885253906	618.854248046875	-528.6298217773438	-711.1466064453125	319.1214904785156	-461.4622497558594	-580.0430297851562	629.0195922851562	-505.9498596191406	-507.5489196777344	522.5629272460938	-500.5009460449219	-607.5723876953125	204.9756317138672	-216.3073883056641	-652.9536743164062	395.6250610351562	-486.3955688476562	-584.546630859375	533.6404418945312	-482.2065124511719	-303.2719116210938	690.8397216796875	-214.2105407714844	-622.519775390625	62.68104934692383	-424.1502685546875	-373.7616577148438	657.7650146484375	-200.4893951416016	-259.0623474121094	602.8612670898438	-236.8945465087891	-333.1295776367188	565.6224975585938	-216.8035125732422	-565.40478515625	453.2509155273438	-489.7610473632812	-288.1939086914062	515.70556640625	-220.0001525878906	-584.896728515625	347.6408386230469	-481.612548828125	-646.5970458984375	268.7417297363281	-459.6585998535156	-361.1956481933594	431.4053039550781	-226.5066986083984	-697.2929077148438	63.14167404174805	-480.1362609863281	-407.4895629882812	504.1839599609375	-229.2226104736328	-846.4478759765625	119.2703094482422	-344.7353210449219	-451.1375427246094	381.8242797851562	-240.5517730712891	-487.8612365722656	452.3418273925781	-240.8497772216797	-785.560302734375	158.3221435546875	-433.4922790527344	-618.85302734375	338.6923828125	-259.0114440917969	-555.5009155273438	137.5165557861328	-269.6016540527344	-670.6747436523438	367.4372863769531	-319.2042541503906	-690.5564575195312	336.4533081054688	-343.756591796875	-694.6559448242188	356.6287841796875	-290.9645690917969	-858.0720825195312	123.0512771606445	-397.4876403808594
116	0.575	-367.22119140625	1411.752197265625	-563.3212890625	-365.0957641601562	1422.068603515625	-263.3771362304688	-428.5599060058594	967.679931640625	-527.2431030273438	-391.4444274902344	971.2591552734376	-251.3749847412109	-386.9593505859375	916.0077514648438	-506.9601135253906	-843.047607421875	159.5311737060547	-366.3965148925781	-367.6614379882812	929.23046875	-272.6410217285156	-532.0880126953125	861.1395874023438	-535.5556640625	-497.7879028320312	851.8804931640625	-208.2396087646484	-548.1062622070312	979.8073120117188	-386.342529296875	-491.6903991699219	622.4497680664062	-528.7755737304688	-704.272705078125	326.0302734375	-462.9679870605469	-565.3585205078125	634.5444946289062	-506.1934204101562	-495.6636962890625	526.1915893554688	-501.2057495117188	-565.1251220703125	196.162353515625	-216.7479248046875	-644.7786865234375	401.9774169921875	-487.1915588378906	-572.6039428710938	539.3021850585938	-483.1074829101562	-280.0486755371094	696.9554443359375	-214.8555297851562	-621.6134643554688	62.61669158935547	-424.8750915527344	-349.8907775878906	663.0259399414062	-201.3960418701172	-234.6311798095703	610.0711059570312	-238.0024108886719	-307.6321105957031	571.659423828125	-218.1404418945312	-555.9855346679688	458.4041748046875	-490.5968933105469	-261.9284973144531	522.6693115234375	-222.1074066162109	-577.4923706054688	352.9919738769531	-482.6465148925781	-640.248291015625	274.5498352050781	-461.6665954589844	-331.3415222167969	435.1553039550781	-227.1975555419922	-696.0409545898438	63.57516860961914	-481.0560607910156	-381.3264770507812	505.0234985351562	-230.6931304931641	-841.3355712890625	127.8843612670898	-346.1453552246094	-419.2106018066406	380.9090576171875	-241.6513366699219	-459.296142578125	449.2838134765625	-241.6337890625	-779.9461059570312	164.3176879882812	-435.1871337890625	-584.5476684570312	329.0281982421875	-258.9946594238281	-509.3338928222656	131.9587249755859	-270.3809509277344	-638.2610473632812	354.5556030273438	-319.1179504394531	-656.4622802734375	322.2005310058594	-342.7982482910156	-661.1656494140625	342.5015869140625	-290.5638122558594	-855.7191162109375	130.1719818115234	-398.1004028320312
